<svg xmlns="http://www.w3.org/2000/svg" viewBox="0 0 128 128" role="img" aria-labelledby="title desc">
  <title id="title">非空小队 logo</title>
  <desc id="desc">浅色手绘风格队徽，包含非空小队文字、星星和爪印。</desc>
  <defs>
    <linearGradient id="badgeFill" x1="25" y1="13" x2="103" y2="119" gradientUnits="userSpaceOnUse">
      <stop offset="0" stop-color="#ffffff"/>
      <stop offset="0.64" stop-color="#eef0f9"/>
      <stop offset="1" stop-color="#e5e9f8"/>
    </linearGradient>
    <linearGradient id="accentFill" x1="30" y1="18" x2="98" y2="112" gradientUnits="userSpaceOnUse">
      <stop offset="0" stop-color="#8b9dd6"/>
      <stop offset="1" stop-color="#6b7fc6"/>
    </linearGradient>
    <filter id="paperShadow" x="-12%" y="-8%" width="124%" height="124%" color-interpolation-filters="sRGB">
      <feDropShadow dx="2" dy="3" stdDeviation="0" flood-color="#3c321e" flood-opacity="0.12"/>
    </filter>
  </defs>

  <path d="M64 10.5c12.8 10 26.7 15.3 41.1 17.4 1.3 37-11.2 68.7-41.1 86.9-29.9-18.2-42.4-49.9-41.1-86.9C37.3 25.8 51.2 20.5 64 10.5Z" fill="url(#badgeFill)" stroke="#9e9585" stroke-width="5" stroke-linejoin="round" filter="url(#paperShadow)"/>
  <path d="M64 17.6c11.1 8 23 12.8 35.3 15.1.3 29.1-8.8 56.5-35.3 73.8-26.5-17.3-35.6-44.7-35.3-73.8C41 30.4 52.9 25.6 64 17.6Z" fill="none" stroke="url(#accentFill)" stroke-width="5" stroke-linejoin="round"/>

  <path d="M64 29.6l1.9 3.8 4.2.6-3.1 2.9.8 4.2-3.8-2-3.8 2 .8-4.2-3.1-2.9 4.2-.6 1.9-3.8Z" fill="#6b7fc6" opacity="0.92"/>
  <text x="64" y="61.5" text-anchor="middle" font-family="'PingFang SC','Microsoft YaHei',sans-serif" font-size="27" font-weight="900" fill="#2c2c2c">非空</text>

  <g fill="#8b9dd6" opacity="0.88">
    <circle cx="52.8" cy="73.8" r="3.2"/>
    <circle cx="59.6" cy="70.6" r="3.5"/>
    <circle cx="68.4" cy="70.6" r="3.5"/>
    <circle cx="75.2" cy="73.8" r="3.2"/>
    <path d="M53.7 86.8c1.8-6.1 6.8-9.2 10.3-9.2s8.5 3.1 10.3 9.2c.8 2.9-1.3 5-4.1 4.2-2-.6-4.1-.9-6.2-.9s-4.2.3-6.2.9c-2.8.8-4.9-1.3-4.1-4.2Z"/>
  </g>

  <path d="M35 91c17.6 5.2 40.4 5.2 58 0l-2.5 19c-15.9 4.1-37.1 4.1-53 0L35 91Z" fill="url(#accentFill)" stroke="#9e9585" stroke-width="4" stroke-linejoin="round"/>
  <path d="M34.9 92.1l-15.1-5.6 5.4 18.8 12.3 4.7L34.9 92.1Z" fill="#fdf8f0" stroke="#9e9585" stroke-width="3.5" stroke-linejoin="round"/>
  <path d="M93.1 92.1l15.1-5.6-5.4 18.8-12.3 4.7 2.6-17.9Z" fill="#fdf8f0" stroke="#9e9585" stroke-width="3.5" stroke-linejoin="round"/>
  <text x="64" y="106.4" text-anchor="middle" font-family="'PingFang SC','Microsoft YaHei',sans-serif" font-size="16.5" font-weight="900" fill="#ffffff">小队</text>

  <circle cx="42.5" cy="100.7" r="2.4" fill="#eef0f9"/>
  <circle cx="85.5" cy="100.7" r="2.4" fill="#eef0f9"/>
</svg>
